<svg width="400" height="136" viewBox="0 0 400 136" fill="none" xmlns="http://www.w3.org/2000/svg">
<path d="M35.1803 19.8248C32.9624 19.8248 29.1791 39.2691 25.7871 60.3875C13.3932 62.319 4 64.3793 4 66.1821C4 73.007 14.8283 84.4675 21.6123 84.4675H22.3951C20.8295 96.8295 19.7858 107.131 19.7858 111.638C19.7858 115.759 25.2652 121.94 28.6572 121.94C30.3532 121.94 32.1797 101.465 35.5717 83.4374C42.8775 82.6647 52.1403 81.6346 61.1421 80.3469C58.011 95.413 55.7932 108.548 55.7932 113.055C55.7932 115.244 59.0547 122.712 63.6209 122.712C65.8387 122.712 70.5353 99.1473 75.3624 80.6044L76.0147 78.029C88.7999 75.8399 98.8455 73.522 98.8455 71.5905C98.8455 67.4698 89.1913 54.464 83.1901 54.464H82.016C84.7556 43.0035 88.2781 27.4223 88.2781 24.8469C88.2781 22.2715 83.451 16.9919 78.363 16.9919C76.2756 16.9919 71.3181 35.0197 66.491 55.623C58.7938 56.2668 49.6615 57.297 40.6597 58.3271C43.1384 46.4803 45.7477 32.7019 45.7477 29.4826C45.7477 24.3318 39.4855 19.8248 35.1803 19.8248Z" fill="black"/>
<path d="M142.125 48.0255C140.82 48.0255 139.385 52.1462 137.82 57.9408C129.34 81.1195 113.293 100.177 102.987 102.624C102.856 101.336 102.726 99.4049 102.726 98.6322C102.726 95.2842 103.248 91.2923 104.161 87.1717C117.207 84.5963 131.427 71.848 131.427 60.3875C131.427 54.0777 124.643 44.1624 118.381 44.1624C101.682 44.1624 86.9399 75.4536 86.9399 97.6021C86.9399 106.487 98.9423 115.372 105.726 115.372C114.076 115.372 124.904 103.139 132.34 87.0429C131.427 93.4814 130.905 99.0186 130.905 101.98C130.905 107.131 136.124 113.57 140.69 113.57C146.561 113.57 162.477 93.9965 165.086 75.9687C159.216 83.3086 151.649 89.1033 146.691 92.58C146.952 82.2784 154.128 59.7436 154.128 56.3956C154.128 52.6612 146.3 48.0255 142.125 48.0255ZM143.299 35.0197C143.299 38.3677 151.127 43.0035 154.91 43.0035C158.172 43.0035 161.172 30.384 161.172 27.9374C161.172 24.0742 151.127 20.5974 147.604 20.5974C144.995 20.5974 143.299 32.8306 143.299 35.0197ZM117.076 58.971C118.512 58.971 120.99 61.0313 120.99 63.6067C120.99 67.5986 112.902 74.1659 107.944 74.4234C111.075 65.7958 114.989 59.0998 117.076 58.971Z" fill="black"/>
<path d="M146.145 105.328C147.058 105.328 153.842 100.95 163.366 83.051C161.278 90.7773 159.713 98.5035 159.713 103.912C159.713 109.191 167.671 118.592 173.411 118.592C179.021 118.592 184.37 103.397 189.458 87.6868C183.326 94.3828 178.108 97.9884 174.455 100.177C175.107 87.1717 185.153 67.0835 185.153 64.3793C185.153 59.8724 180.978 56.3956 177.847 54.9791C178.76 53.0476 179.673 50.7297 179.673 48.7981C179.673 46.3515 176.412 42.8747 173.803 42.8747C172.498 42.8747 171.454 43.1322 170.672 44.8063C168.062 51.116 164.149 62.319 156.712 74.9385L155.799 76.4838C142.883 97.3445 141.187 95.2842 141.187 98.2459C141.187 100.821 143.927 105.328 146.145 105.328Z" fill="black"/>
<path d="M196.943 114.471C207.511 114.471 216.773 88.4594 216.904 78.4153C209.729 89.8759 203.988 96.3144 198.9 100.693C199.944 90.6485 202.814 76.6125 206.206 63.478C214.425 52.79 221.731 38.7541 221.731 30.5128C221.731 22.2715 215.338 13 208.815 13C197.726 13 184.941 93.4814 184.941 99.6624C184.941 107.389 191.986 114.471 196.943 114.471Z" fill="black"/>
<path d="M252.654 47.1241C252.654 45.5789 244.827 40.9432 239.739 40.9432C232.042 40.9432 213.516 74.1659 213.516 93.3527C213.516 102.882 222.648 114.857 232.302 114.857C240.13 114.857 248.871 103.139 254.09 88.9745C253.959 90.6485 253.829 92.1937 253.829 93.739C253.829 103.01 264.266 113.312 271.571 113.312C282.53 113.312 303.273 79.4455 303.273 57.5545C303.273 55.1079 296.359 52.1462 293.619 52.1462C293.097 52.1462 292.706 52.1462 292.184 52.2749C289.706 49.1845 285.27 44.4199 282.661 44.4199C274.702 44.4199 263.744 59.2285 257.873 74.681C258.264 71.5905 258.656 68.5 258.656 65.5383C258.656 56.7819 254.872 54.0777 249.523 54.0777C249.132 54.0777 248.61 54.0777 248.219 54.2065C250.698 51.116 252.654 48.5406 252.654 47.1241ZM243.914 65.4095C243.914 80.6044 235.825 102.109 229.954 106.487C229.302 105.586 229.302 101.079 229.302 98.8898C229.302 80.9907 236.869 68.6288 243.522 60.0012C243.783 61.6752 243.914 63.478 243.914 65.4095ZM270.528 101.852C270.397 101.465 270.397 101.079 270.397 100.564C270.397 81.1195 280.051 65.667 288.27 58.5847C288.14 74.0371 277.573 97.7309 270.528 101.852Z" fill="black"/>
<path d="M308.982 42.2309C307.547 42.2309 307.156 43.0035 307.156 44.4199C307.156 48.9269 307.678 53.0476 307.678 56.9107C307.678 88.5882 302.198 99.5336 302.198 103.397C302.198 107.131 308.591 117.433 312.244 117.433C313.157 117.433 314.201 115.115 315.244 111.638C321.767 95.2842 326.855 84.3387 334.814 74.4234C333.77 87.6868 327.377 102.367 327.377 105.328C327.377 109.449 333.9 115.501 337.553 115.501C338.336 115.501 339.38 113.956 340.293 111.509H340.423C348.251 90.906 353.47 79.703 360.775 70.9466C355.296 83.9524 351.121 101.079 351.121 107.775C351.121 116.918 358.949 124 366.385 124C376.561 124 392.869 95.2842 395.609 73.9083L395.87 71.848C395.87 71.2042 396 70.4316 396 70.174C396 68.3712 395.217 66.5684 394.043 66.5684C392.738 66.6972 392.086 68.6288 391.173 72.2343L390.782 73.7796C387.65 86.2703 378.518 104.041 370.951 104.041C367.82 104.041 366.255 100.821 366.255 98.2459C366.255 85.884 381.127 62.4478 381.127 57.6833C381.127 52.79 373.952 43.1322 370.038 43.1322C366.646 43.1322 355.948 61.0313 348.642 75.3248C349.947 67.4698 350.86 60.9026 350.86 58.3271C350.86 55.1079 345.381 46.4803 341.337 46.4803C336.379 46.4803 327.247 64.1218 321.506 76.8701C322.289 69.9165 322.811 63.3492 322.811 58.5847C322.811 52.0174 313.809 42.2309 308.982 42.2309Z" fill="black"/>
</svg>
